<svg xmlns="http://www.w3.org/2000/svg" width="18.763" height="18.762" viewBox="0 0 18.763 18.762">
  <g id="Group_71" data-name="Group 71" transform="translate(-29.14 -479.14)">
    <g id="communications_1_" data-name="communications (1)" transform="translate(29.14 479.14)">
      <g id="Group_60" data-name="Group 60">
        <path id="Path_47" data-name="Path 47" d="M17.257,12.315a10.653,10.653,0,0,1-3.345-.533,1.529,1.529,0,0,0-1.487.314l-2.11,1.593A11.659,11.659,0,0,1,5.073,8.448L6.619,6.393a1.517,1.517,0,0,0,.373-1.537,10.669,10.669,0,0,1-.535-3.351A1.507,1.507,0,0,0,4.951,0H1.506A1.507,1.507,0,0,0,0,1.506,17.276,17.276,0,0,0,17.257,18.762a1.507,1.507,0,0,0,1.506-1.506V13.821A1.507,1.507,0,0,0,17.257,12.315Z" fill="#bdbdbd"/>
      </g>
    </g>
  </g>
</svg>
