<svg xmlns="http://www.w3.org/2000/svg" width="110.486" height="73.658" viewBox="0 0 110.486 73.658">
  <g id="world" transform="translate(0 -85.331)">
    <rect id="Rectangle_76" data-name="Rectangle 76" width="110.486" height="73.658" transform="translate(0 85.331)" fill="#d80027"/>
    <g id="Group_318" data-name="Group 318" transform="translate(37.68 103.252)">
      <path id="Path_406" data-name="Path 406" d="M240.222,178.319c-.837,3.481-2.324,2.817-3.054,5.853a8.006,8.006,0,0,1,3.743-15.569C239.451,174.676,240.971,175.206,240.222,178.319Z" transform="translate(-218.857 -168.38)" fill="#f0f0f0"/>
      <path id="Path_407" data-name="Path 407" d="M184.822,213.1c3.052,1.872,1.961,3.081,4.623,4.713a8.006,8.006,0,0,1-13.65-8.371C181.119,212.71,182.092,211.428,184.822,213.1Z" transform="translate(-174.613 -200.583)" fill="#f0f0f0"/>
      <path id="Path_408" data-name="Path 408" d="M194.541,268.569c2.724-2.325,3.536-.913,5.911-2.94a8.006,8.006,0,1,1-12.179,10.4C193.023,271.971,192.1,270.649,194.541,268.569Z" transform="translate(-185.325 -244.643)" fill="#f0f0f0"/>
      <path id="Path_409" data-name="Path 409" d="M262.646,274.02c-1.37-3.308.224-3.646-.97-6.531a8.006,8.006,0,1,1,6.123,14.8C265.411,276.515,263.87,276.979,262.646,274.02Z" transform="translate(-242.888 -245.623)" fill="#f0f0f0"/>
      <path id="Path_410" data-name="Path 410" d="M277.216,224.558c-3.57.28-3.4-1.34-6.511-1.1a8.006,8.006,0,1,1,15.964-1.252C280.443,222.7,280.408,224.308,277.216,224.558Z" transform="translate(-249.95 -204.806)" fill="#f0f0f0"/>
    </g>
  </g>
</svg>
