<svg xmlns="http://www.w3.org/2000/svg" width="11.995" height="9.515" viewBox="0 0 11.995 9.515">
  <g id="Group_67" data-name="Group 67" transform="translate(-26 -181.296)">
    <g id="target" transform="translate(17.931 69.851)">
      <g id="Group_37" data-name="Group 37" transform="translate(8.069 117.06)">
        <g id="Group_36" data-name="Group 36">
          <path id="Path_36" data-name="Path 36" d="M153.174,282.408a2.965,2.965,0,0,0-1.426-.363h-1.227a2.98,2.98,0,0,0-2.981,2.981v.92h7.189v-.92A2.98,2.98,0,0,0,153.174,282.408Z" transform="translate(-147.54 -282.045)" fill="#bdbdbd"/>
        </g>
      </g>
      <g id="Group_39" data-name="Group 39" transform="translate(14.455 116.243)">
        <g id="Group_38" data-name="Group 38">
          <path id="Path_37" data-name="Path 37" d="M344.217,257.225H343.2a2.951,2.951,0,0,0-1.617.48,3.976,3.976,0,0,1,1.79,3.318v.432h3.819V260.2A2.975,2.975,0,0,0,344.217,257.225Z" transform="translate(-341.58 -257.225)" fill="#bdbdbd"/>
        </g>
      </g>
      <g id="Group_43" data-name="Group 43" transform="translate(14.578 111.773)">
        <g id="Group_42" data-name="Group 42">
          <path id="Path_39" data-name="Path 39" d="M347.338,121.416h-.016a2.115,2.115,0,0,0,.019,4.223h.016A1.939,1.939,0,0,0,348.78,125a2.16,2.16,0,0,0,.563-1.485A2.063,2.063,0,0,0,347.338,121.416Z" transform="translate(-345.337 -121.416)" fill="#bdbdbd"/>
        </g>
      </g>
      <g id="Group_47" data-name="Group 47" transform="translate(9.354 111.445)">
        <g id="Group_46" data-name="Group 46">
          <path id="Path_41" data-name="Path 41" d="M188.909,111.445a2.38,2.38,0,0,0-2.309,2.44,2.455,2.455,0,0,0,1.322,2.205,2.2,2.2,0,0,0,1.974,0,2.455,2.455,0,0,0,1.322-2.205A2.38,2.38,0,0,0,188.909,111.445Z" transform="translate(-186.6 -111.445)" fill="#bdbdbd"/>
        </g>
      </g>
    </g>
  </g>
</svg>
