<svg xmlns="http://www.w3.org/2000/svg" width="18.849" height="18.849" viewBox="0 0 18.849 18.849">
  <g id="Group_61" data-name="Group 61" transform="translate(-206 -405)">
    <g id="calendar_1_" data-name="calendar (1)" transform="translate(206 405)">
      <path id="Path_30" data-name="Path 30" d="M64.589,237.809h1.963a.589.589,0,0,0,.589-.589v-1.963a.589.589,0,0,0-.589-.589H64.589a.589.589,0,0,0-.589.589v1.963A.589.589,0,0,0,64.589,237.809Zm0,0" transform="translate(-61.644 -226.029)" fill="#bdbdbd"/>
      <path id="Path_31" data-name="Path 31" d="M64.589,365.809h1.963a.589.589,0,0,0,.589-.589v-1.963a.589.589,0,0,0-.589-.589H64.589a.589.589,0,0,0-.589.589v1.963A.589.589,0,0,0,64.589,365.809Zm0,0" transform="translate(-61.644 -349.317)" fill="#bdbdbd"/>
      <path id="Path_32" data-name="Path 32" d="M213.921,237.809h1.963a.589.589,0,0,0,.589-.589v-1.963a.589.589,0,0,0-.589-.589h-1.963a.589.589,0,0,0-.589.589v1.963A.589.589,0,0,0,213.921,237.809Zm0,0" transform="translate(-205.478 -226.029)" fill="#bdbdbd"/>
      <path id="Path_33" data-name="Path 33" d="M213.921,365.809h1.963a.589.589,0,0,0,.589-.589v-1.963a.589.589,0,0,0-.589-.589h-1.963a.589.589,0,0,0-.589.589v1.963A.589.589,0,0,0,213.921,365.809Zm0,0" transform="translate(-205.478 -349.317)" fill="#bdbdbd"/>
      <path id="Path_34" data-name="Path 34" d="M363.257,237.809h1.963a.589.589,0,0,0,.589-.589v-1.963a.589.589,0,0,0-.589-.589h-1.963a.589.589,0,0,0-.589.589v1.963A.589.589,0,0,0,363.257,237.809Zm0,0" transform="translate(-349.317 -226.029)" fill="#bdbdbd"/>
      <path id="Path_35" data-name="Path 35" d="M16.493,2.356h-.785V.785A.786.786,0,0,0,14.922,0h-.785a.786.786,0,0,0-.785.785V2.356H5.5V.785A.786.786,0,0,0,4.712,0H3.927a.786.786,0,0,0-.785.785V2.356H2.356A2.359,2.359,0,0,0,0,4.712v11.78a2.359,2.359,0,0,0,2.356,2.356H16.493a2.359,2.359,0,0,0,2.356-2.356V4.712a2.359,2.359,0,0,0-2.356-2.356Zm.785,14.136a.787.787,0,0,1-.785.785H2.356a.787.787,0,0,1-.785-.785V7.885H17.278Zm0,0" fill="#bdbdbd"/>
    </g>
  </g>
</svg>
