<svg xmlns="http://www.w3.org/2000/svg" width="10.315" height="10.315" viewBox="0 0 10.315 10.315">
  <g id="Group_68" data-name="Group 68" transform="translate(-27 -202.842)">
    <g id="tool" transform="translate(27 202.842)">
      <g id="Group_63" data-name="Group 63">
        <g id="Group_62" data-name="Group 62">
          <path id="Path_54" data-name="Path 54" d="M5.158,0a5.158,5.158,0,1,0,5.158,5.158A5.164,5.164,0,0,0,5.158,0Zm0,9.444A4.286,4.286,0,1,1,9.444,5.158,4.291,4.291,0,0,1,5.158,9.444Z" fill="#bdbdbd"/>
        </g>
      </g>
      <g id="Group_65" data-name="Group 65" transform="translate(4.591 1.522)">
        <g id="Group_64" data-name="Group 64">
          <path id="Path_55" data-name="Path 55" d="M230.782,79.018h-2.034v-3.04a.436.436,0,1,0-.872,0v3.476a.436.436,0,0,0,.436.436h2.47a.436.436,0,1,0,0-.872Z" transform="translate(-227.876 -75.542)" fill="#bdbdbd"/>
        </g>
      </g>
    </g>
  </g>
</svg>
