<svg xmlns="http://www.w3.org/2000/svg" width="37.605" height="35.64" viewBox="0 0 37.605 35.64">
  <g id="Group_36" data-name="Group 36" transform="translate(-243.379 -241.576)">
    <path id="Rectangle_5" data-name="Rectangle 5" d="M1,0H36a1,1,0,0,1,1,1V34a1,1,0,0,1-1,1H4a4,4,0,0,1-4-4V1A1,1,0,0,1,1,0Z" transform="matrix(1, 0.017, -0.017, 1, 243.989, 241.576)" fill="#b40404"/>
    <g id="gift" transform="matrix(1, 0.017, -0.017, 1, 252.342, 250.078)">
      <g id="Group_23" data-name="Group 23" transform="translate(1.196 9.545)">
        <g id="Group_22" data-name="Group 22">
          <path id="Path_19" data-name="Path 19" d="M32,271.692v7.176a1.2,1.2,0,0,0,1.2,1.2h5.98v-8.372Z" transform="translate(-32 -271.692)" fill="#fff"/>
        </g>
      </g>
      <g id="Group_25" data-name="Group 25" transform="translate(0 0)">
        <g id="Group_24" data-name="Group 24">
          <path id="Path_20" data-name="Path 20" d="M17.94,21.069H14.156a4.647,4.647,0,0,0,.667-.535,2.5,2.5,0,0,0,0-3.519,2.527,2.527,0,0,0-3.508,0c-.519.52-1.894,2.638-1.7,4.053H9.525c.189-1.415-1.186-3.533-1.7-4.053a2.53,2.53,0,0,0-3.508,0,2.5,2.5,0,0,0,0,3.519,4.733,4.733,0,0,0,.669.535H1.2a1.2,1.2,0,0,0-1.2,1.2v1.794a.6.6,0,0,0,.6.6H8.372V22.265h2.392v2.392h7.774a.6.6,0,0,0,.6-.6V22.265A1.2,1.2,0,0,0,17.94,21.069ZM8.3,21.03a.394.394,0,0,1-.221.039,5.881,5.881,0,0,1-2.919-1.378,1.3,1.3,0,0,1,0-1.832,1.275,1.275,0,0,1,1.812,0C7.779,18.67,8.58,20.741,8.3,21.03Zm2.753.039c-.17,0-.22-.038-.22-.039-.279-.288.523-2.36,1.329-3.171a1.288,1.288,0,0,1,1.812,1.832A5.88,5.88,0,0,1,11.055,21.069Z" transform="translate(0 -16.308)" fill="#fff"/>
        </g>
      </g>
      <g id="Group_27" data-name="Group 27" transform="translate(10.764 9.545)">
        <g id="Group_26" data-name="Group 26">
          <path id="Path_21" data-name="Path 21" d="M288,271.692v8.372h5.98a1.2,1.2,0,0,0,1.2-1.2v-7.176Z" transform="translate(-288 -271.692)" fill="#fff"/>
        </g>
      </g>
    </g>
  </g>
</svg>
