<svg xmlns="http://www.w3.org/2000/svg" width="17.924" height="16.654" viewBox="0 0 17.924 16.654">
  <g id="Group_66" data-name="Group 66" transform="translate(-20 -51.539)">
    <g id="back" transform="translate(20 9.865)">
      <g id="Group_1" data-name="Group 1" transform="translate(0 41.674)">
        <path id="Path_1" data-name="Path 1" d="M16.8,48.413l.031.007-11.291.016,4.218-4.227a1.108,1.108,0,0,0,0-1.557L9.1,41.994a1.1,1.1,0,0,0-1.55,0L.32,49.223a1.105,1.105,0,0,0,0,1.555l7.23,7.23a1.1,1.1,0,0,0,1.55,0l.656-.657a1.086,1.086,0,0,0,.32-.775,1.053,1.053,0,0,0-.32-.76L5.49,51.566l11.322-.016a1.136,1.136,0,0,0,1.112-1.125V49.5A1.114,1.114,0,0,0,16.8,48.413Z" transform="translate(0 -41.674)" fill="#b40404"/>
      </g>
    </g>
  </g>
</svg>
