<svg xmlns="http://www.w3.org/2000/svg" width="19.009" height="17.37" viewBox="0 0 19.009 17.37">
  <g id="heart_2_" data-name="heart (2)" transform="translate(0 0)">
    <path id="Path_45" data-name="Path 45" d="M13.929,0A5.076,5.076,0,0,0,9.5,2.589,5.076,5.076,0,0,0,5.08,0,5.37,5.37,0,0,0,0,5.408C0,12.454,9.5,17.37,9.5,17.37s9.5-4.916,9.5-11.963A5.37,5.37,0,0,0,13.929,0Zm0,0" transform="translate(0 0)" fill="#ddd"/>
    <path id="Path_46" data-name="Path 46" d="M1.311,5.407A5.443,5.443,0,0,1,5.773.047,5.056,5.056,0,0,0,5.081,0,5.37,5.37,0,0,0,0,5.407c0,7.046,9.5,11.963,9.5,11.963s.246-.128.655-.368C8.013,15.739,1.311,11.325,1.311,5.407Zm0,0" transform="translate(0 0)" fill="#ddd"/>
  </g>
</svg>
