<svg xmlns="http://www.w3.org/2000/svg" width="16" height="16" viewBox="0 0 16 16">
  <g id="Group_37" data-name="Group 37" transform="translate(-293 -581)">
    <g id="Ellipse_4" data-name="Ellipse 4" transform="translate(293 581)" fill="#fff" stroke="#c1c1c1" stroke-width="0.7">
      <circle cx="8" cy="8" r="8" stroke="none"/>
      <circle cx="8" cy="8" r="7.65" fill="none"/>
    </g>
    <g id="Group_19" data-name="Group 19" transform="translate(138.54 414.108)">
      <g id="Group_16" data-name="Group 16" transform="translate(164.414 176.684)">
        <g id="Group_15" data-name="Group 15" transform="translate(0 0)">
          <g id="Group_11" data-name="Group 11" transform="translate(0.016 0.039)">
            <path id="Path_14" data-name="Path 14" d="M242.6,299.9l0,0h0Z" transform="translate(-242.604 -299.9)" fill="#c1c1c1"/>
          </g>
          <g id="Group_12" data-name="Group 12" transform="translate(0.019 0.022)">
            <path id="Path_15" data-name="Path 15" d="M242.656,299.619l-.009.017h0Z" transform="translate(-242.647 -299.619)" fill="#c1c1c1"/>
          </g>
          <g id="Group_13" data-name="Group 13" transform="translate(0.04)">
            <path id="Path_16" data-name="Path 16" d="M243,299.245Z" transform="translate(-243.004 -299.244)" fill="#c1c1c1"/>
          </g>
          <g id="Group_14" data-name="Group 14" transform="translate(0 0.055)">
            <path id="Path_17" data-name="Path 17" d="M242.346,300.169l-.009.017Z" transform="translate(-242.337 -300.169)" fill="#c1c1c1"/>
          </g>
        </g>
      </g>
      <path id="Path_18" data-name="Path 18" d="M165.533,175.176l0,0-.011-.019a2.508,2.508,0,0,0-1.293-1,7.979,7.979,0,0,0-1.067-.317v-2.366a2.023,2.023,0,0,1,.858.335,1.18,1.18,0,0,1,.295.31,1.077,1.077,0,0,1,.1.2c.027.068.04.14.066.209a.625.625,0,0,0,1.2-.316,1.37,1.37,0,0,0-.059-.222,2.218,2.218,0,0,0-.088-.229,2.387,2.387,0,0,0-.5-.718,3.087,3.087,0,0,0-1.631-.791q-.122-.022-.244-.038v-.687a.625.625,0,0,0-1.25,0v.691a3.126,3.126,0,0,0-1.684.747,2.2,2.2,0,0,0-.513.7,2.127,2.127,0,0,0-.187.906,2.077,2.077,0,0,0,.193.894,1.9,1.9,0,0,0,.553.665,4.443,4.443,0,0,0,1.638.708V177.3a1.855,1.855,0,0,1-.8-.433,1.58,1.58,0,0,1-.274-.351,1.4,1.4,0,0,1-.1-.2c-.027-.071-.043-.145-.066-.217a.625.625,0,0,0-1.215.259,1.166,1.166,0,0,0,.05.212c.023.077.048.152.078.227a2.759,2.759,0,0,0,.471.778,3.066,3.066,0,0,0,1.529.94c.105.029.212.054.32.074v.728a.625.625,0,0,0,1.25,0v-.666a3.293,3.293,0,0,0,1.763-.623,2.25,2.25,0,0,0,.61-2.848Zm-3.623-1.644c-.145-.045-.279-.09-.4-.139a2.1,2.1,0,0,1-.409-.211.7.7,0,0,1-.275-.3.961.961,0,0,1-.049-.441.855.855,0,0,1,.148-.4,1.566,1.566,0,0,1,.983-.563Zm2.531,3.175-.009.017,0,0-.007.012a1.631,1.631,0,0,1-1.263.655v-2.272a4.107,4.107,0,0,1,.859.3,1.231,1.231,0,0,1,.339.246.719.719,0,0,1,.169.342,1.151,1.151,0,0,1,.023.231A.977.977,0,0,1,164.441,176.706Z" transform="translate(0 0)" fill="#c1c1c1"/>
    </g>
  </g>
</svg>
