<svg xmlns="http://www.w3.org/2000/svg" width="19.931" height="15.811" viewBox="0 0 19.931 15.811">
  <g id="Group_60" data-name="Group 60" transform="translate(-31.069 -406)">
    <g id="target" transform="translate(23 294.555)">
      <g id="Group_37" data-name="Group 37" transform="translate(8.069 120.775)">
        <g id="Group_36" data-name="Group 36">
          <path id="Path_36" data-name="Path 36" d="M156.9,282.648a4.927,4.927,0,0,0-2.369-.6h-2.039A4.952,4.952,0,0,0,147.54,287v1.528h11.945V287A4.951,4.951,0,0,0,156.9,282.648Z" transform="translate(-147.54 -282.045)" fill="#bdbdbd"/>
        </g>
      </g>
      <g id="Group_39" data-name="Group 39" transform="translate(18.68 119.417)">
        <g id="Group_38" data-name="Group 38">
          <path id="Path_37" data-name="Path 37" d="M345.962,257.225h-1.7a4.9,4.9,0,0,0-2.686.8,6.606,6.606,0,0,1,2.974,5.514v.719H350.9v-2.091A4.944,4.944,0,0,0,345.962,257.225Z" transform="translate(-341.58 -257.225)" fill="#bdbdbd"/>
        </g>
      </g>
      <g id="Group_43" data-name="Group 43" transform="translate(18.886 111.99)">
        <g id="Group_42" data-name="Group 42">
          <path id="Path_39" data-name="Path 39" d="M348.663,121.416h-.026a3.514,3.514,0,0,0,.031,7.017h.026a3.222,3.222,0,0,0,2.365-1.068,3.589,3.589,0,0,0,.935-2.468A3.428,3.428,0,0,0,348.663,121.416Z" transform="translate(-345.337 -121.416)" fill="#bdbdbd"/>
        </g>
      </g>
      <g id="Group_47" data-name="Group 47" transform="translate(10.205 111.445)">
        <g id="Group_46" data-name="Group 46">
          <path id="Path_41" data-name="Path 41" d="M190.437,111.445A3.954,3.954,0,0,0,186.6,115.5a4.08,4.08,0,0,0,2.2,3.664,3.649,3.649,0,0,0,3.28,0,4.08,4.08,0,0,0,2.2-3.664A3.954,3.954,0,0,0,190.437,111.445Z" transform="translate(-186.6 -111.445)" fill="#bdbdbd"/>
        </g>
      </g>
    </g>
  </g>
</svg>
