<svg xmlns="http://www.w3.org/2000/svg" width="10.225" height="10.225" viewBox="0 0 10.225 10.225">
  <g id="calendar_1_" data-name="calendar (1)" transform="translate(0)">
    <path id="Path_30" data-name="Path 30" d="M64.32,236.372h1.065a.32.32,0,0,0,.32-.32v-1.065a.32.32,0,0,0-.32-.32H64.32a.32.32,0,0,0-.32.32v1.065A.32.32,0,0,0,64.32,236.372Zm0,0" transform="translate(-62.722 -229.981)" fill="#bdbdbd"/>
    <path id="Path_31" data-name="Path 31" d="M64.32,364.372h1.065a.32.32,0,0,0,.32-.32v-1.065a.32.32,0,0,0-.32-.32H64.32a.32.32,0,0,0-.32.32v1.065A.32.32,0,0,0,64.32,364.372Zm0,0" transform="translate(-62.722 -355.425)" fill="#bdbdbd"/>
    <path id="Path_32" data-name="Path 32" d="M213.652,236.372h1.065a.32.32,0,0,0,.32-.32v-1.065a.32.32,0,0,0-.32-.32h-1.065a.32.32,0,0,0-.32.32v1.065A.32.32,0,0,0,213.652,236.372Zm0,0" transform="translate(-209.071 -229.981)" fill="#bdbdbd"/>
    <path id="Path_33" data-name="Path 33" d="M213.652,364.372h1.065a.32.32,0,0,0,.32-.32v-1.065a.32.32,0,0,0-.32-.32h-1.065a.32.32,0,0,0-.32.32v1.065A.32.32,0,0,0,213.652,364.372Zm0,0" transform="translate(-209.071 -355.425)" fill="#bdbdbd"/>
    <path id="Path_34" data-name="Path 34" d="M362.988,236.372h1.065a.32.32,0,0,0,.32-.32v-1.065a.32.32,0,0,0-.32-.32h-1.065a.32.32,0,0,0-.32.32v1.065A.32.32,0,0,0,362.988,236.372Zm0,0" transform="translate(-355.425 -229.981)" fill="#bdbdbd"/>
    <path id="Path_35" data-name="Path 35" d="M8.947,1.278H8.521V.426A.426.426,0,0,0,8.1,0H7.669a.426.426,0,0,0-.426.426v.852H2.982V.426A.426.426,0,0,0,2.556,0H2.13A.426.426,0,0,0,1.7.426v.852H1.278A1.28,1.28,0,0,0,0,2.556V8.947a1.28,1.28,0,0,0,1.278,1.278H8.947a1.28,1.28,0,0,0,1.278-1.278V2.556A1.28,1.28,0,0,0,8.947,1.278Zm.426,7.669a.427.427,0,0,1-.426.426H1.278a.427.427,0,0,1-.426-.426V4.278H9.373Zm0,0" fill="#bdbdbd"/>
  </g>
</svg>
