<svg xmlns="http://www.w3.org/2000/svg" width="14.287" height="15.761" viewBox="0 0 14.287 15.761">
  <g id="Group_70" data-name="Group 70" transform="translate(-30 -407.296)">
    <g id="target" transform="translate(16 295.851)">
      <g id="Group_37" data-name="Group 37" transform="translate(14 120.746)">
        <g id="Group_36" data-name="Group 36">
          <path id="Path_36" data-name="Path 36" d="M158.737,282.646a6.841,6.841,0,0,0-2.833-.6h-2.439a6.83,6.83,0,0,0-2.9.633,4.875,4.875,0,0,0-3.021,4.3v1.523h14.287v-1.523A4.892,4.892,0,0,0,158.737,282.646Z" transform="translate(-147.54 -282.045)" fill="#bdbdbd"/>
        </g>
      </g>
      <g id="Group_47" data-name="Group 47" transform="translate(17 111.445)">
        <g id="Group_46" data-name="Group 46">
          <path id="Path_41" data-name="Path 41" d="M190.425,111.445a3.942,3.942,0,0,0-3.825,4.041,4.067,4.067,0,0,0,2.19,3.653,3.637,3.637,0,0,0,3.27,0,4.067,4.067,0,0,0,2.19-3.653A3.942,3.942,0,0,0,190.425,111.445Z" transform="translate(-186.6 -111.445)" fill="#bdbdbd"/>
        </g>
      </g>
    </g>
  </g>
</svg>
